<svg width="524" height="163" viewBox="0 0 524 163" fill="none" xmlns="http://www.w3.org/2000/svg">
<path d="M94.2634 36.0823C66.9561 46.6079 64.4546 73.5637 56.6246 86.1528C48.7017 98.8913 30.5508 105.92 33.0329 112.411C35.515 118.903 53.6875 111.931 68.0646 116.073C82.2713 120.165 102.093 138.519 129.401 127.993C143.312 122.632 153.385 111.595 158.017 98.5232C158.515 97.1201 157.583 95.6195 156.106 95.481C155.188 95.3944 154.306 95.8772 153.892 96.7044C149.702 105.084 142.514 111.985 133.108 115.61C117.579 121.595 100.588 116.896 90.1531 105.11C87.7832 102.434 85.7561 99.3872 84.156 96.0201C83.7161 95.0934 83.2978 94.1515 82.9269 93.1771C82.5538 92.2027 82.2368 91.2218 81.9457 90.2366C90.1531 86.3953 99.6243 82.3267 110.361 78.1888C120.889 74.1311 130.47 70.8398 139.001 68.2068C144.772 66.4269 150.062 64.9458 154.838 63.7354C155.183 63.6488 155.524 63.5622 155.863 63.4778C156.585 63.298 157.327 63.6856 157.594 64.3829L157.599 64.3958C157.756 64.8094 157.892 65.2252 158.038 65.6409C158.983 68.3237 159.69 71.0347 160.158 73.7521C160.363 74.9409 161.657 75.5883 162.718 75.0167C166.638 72.9033 170.225 70.842 173.429 68.8585C185.369 61.4749 191.99 55.2128 190.631 51.6639C189.275 48.1128 180.183 47.9092 166.388 50.4426C162.004 51.2481 157.143 52.3308 151.905 53.6711C151 53.9028 150.083 54.1431 149.156 54.39C144.748 55.5636 140.099 56.9082 135.258 58.4131C126.254 61.2128 116.596 64.5669 106.624 68.4103C97.2953 72.0069 88.4539 75.7355 80.3456 79.4512C80.2464 63.6813 89.7413 48.7732 105.27 42.7883C114.674 39.1635 124.615 39.4602 133.315 42.8749C134.173 43.2127 135.15 42.9788 135.777 42.2967C136.782 41.2033 136.474 39.4624 135.169 38.7521C123.015 32.1545 108.175 30.721 94.2634 36.0823Z" fill="black"/>
<path d="M253.554 102.278H226.189V85.5807H252.081C252.909 85.5807 253.462 85.021 253.462 84.1815V75.693C253.462 74.8535 252.909 74.2938 252.081 74.2938H226.189V59.5556H253.462C254.29 59.5556 254.843 58.9959 254.843 58.1564V49.6679C254.843 48.8284 254.29 48.2687 253.462 48.2687H214.957C214.129 48.2687 213.576 48.8284 213.576 49.6679V112.165C213.576 113.005 214.129 113.565 214.957 113.565H253.554C254.382 113.565 254.935 113.005 254.935 112.165V103.677C254.935 102.837 254.382 102.278 253.554 102.278Z" fill="black"/>
<path d="M294.044 68.9769L283.088 99.1995L272.041 68.9769C271.764 68.2306 271.12 67.8575 270.383 67.8575H260.901C259.888 67.8575 259.428 68.4172 259.796 69.4433L276.736 112.445C277.012 113.191 277.657 113.565 278.393 113.565H287.784C288.52 113.565 289.165 113.191 289.441 112.445L306.289 69.4433C306.657 68.4172 306.197 67.8575 305.184 67.8575H295.701C294.965 67.8575 294.32 68.2306 294.044 68.9769Z" fill="black"/>
<path d="M368.783 66.8314C361.418 66.8314 356.078 70.3761 352.856 75.3199C350.002 69.8164 344.938 66.8314 338.954 66.8314C332.418 66.8314 327.63 70.4693 324.684 75.3199V75.2266L324.316 69.2567C324.224 68.4172 323.763 67.8575 322.935 67.8575H313.912C313.084 67.8575 312.531 68.4172 312.531 69.2567V112.165C312.531 113.005 313.084 113.565 313.912 113.565H323.303C324.132 113.565 324.684 113.005 324.684 112.165V87.1664C324.684 85.021 327.814 78.2116 334.627 78.2116C339.046 78.2116 343.097 80.8234 343.097 88.3791V112.165C343.097 113.005 343.65 113.565 344.478 113.565H353.869C354.697 113.565 355.25 113.005 355.25 112.165V86.9799C355.25 83.7151 358.38 78.2116 365.193 78.2116C369.52 78.2116 373.571 80.8234 373.571 88.3791V112.165C373.571 113.005 374.123 113.565 374.952 113.565H384.342C385.171 113.565 385.723 113.005 385.723 112.165V86.1404C385.723 73.9207 378.634 66.8314 368.783 66.8314Z" fill="black"/>
<path d="M414.45 114.777C427.431 114.777 437.835 104.237 437.835 90.8043C437.835 77.372 427.431 66.8314 414.45 66.8314C401.469 66.8314 391.065 77.372 391.065 90.8043C391.065 104.237 401.469 114.777 414.45 114.777ZM414.45 103.397C407.913 103.397 402.758 98.1734 402.758 90.8043C402.758 83.4352 407.913 78.2116 414.45 78.2116C420.895 78.2116 426.142 83.4352 426.142 90.8043C426.142 98.1734 420.895 103.397 414.45 103.397Z" fill="black"/>
<path d="M454.831 80.6368C454.831 78.3048 456.949 76.7191 459.803 76.7191C463.025 76.7191 465.143 77.9317 468.641 80.2637C469.47 80.9167 470.114 81.1032 470.667 80.357L474.165 75.693C474.626 75.1333 474.81 74.3871 474.257 73.7341C470.483 69.2567 464.59 66.8314 458.79 66.8314C450.689 66.8314 443.139 71.9618 443.139 80.7301C443.139 96.1213 464.959 93.3229 464.959 100.599C464.959 103.49 462.105 104.423 459.159 104.423C455.568 104.423 451.609 102.651 447.927 100.226C447.098 99.5726 446.453 99.3861 445.901 100.132L442.311 105.263C441.942 105.822 441.758 106.475 442.311 107.128C445.533 110.953 451.793 114.777 459.527 114.777C467.813 114.777 476.743 109.647 476.743 100.785C476.743 83.9949 454.831 88.0992 454.831 80.6368Z" fill="black"/>
</svg>
